<svg xmlns="http://www.w3.org/2000/svg" viewBox="0 0 64 64" shape-rendering="crispEdges">
<title>Chess piece</title>
<rect x="33" y="4" width="3" height="1" fill="#222034"/>
<rect x="32" y="5" width="1" height="1" fill="#222034"/>
<rect x="36" y="5" width="1" height="1" fill="#222034"/>
<rect x="31" y="6" width="1" height="1" fill="#222034"/>
<rect x="37" y="6" width="1" height="1" fill="#222034"/>
<rect x="30" y="7" width="1" height="1" fill="#222034"/>
<rect x="38" y="7" width="1" height="1" fill="#222034"/>
<rect x="30" y="8" width="1" height="1" fill="#222034"/>
<rect x="38" y="8" width="1" height="1" fill="#222034"/>
<rect x="30" y="9" width="2" height="1" fill="#222034"/>
<rect x="37" y="9" width="2" height="1" fill="#222034"/>
<rect x="29" y="10" width="3" height="1" fill="#222034"/>
<rect x="37" y="10" width="3" height="1" fill="#222034"/>
<rect x="28" y="11" width="1" height="1" fill="#222034"/>
<rect x="40" y="11" width="1" height="1" fill="#222034"/>
<rect x="27" y="12" width="1" height="1" fill="#222034"/>
<rect x="41" y="12" width="1" height="1" fill="#222034"/>
<rect x="27" y="13" width="1" height="1" fill="#222034"/>
<rect x="41" y="13" width="1" height="1" fill="#222034"/>
<rect x="26" y="14" width="1" height="1" fill="#222034"/>
<rect x="42" y="14" width="1" height="1" fill="#222034"/>
<rect x="26" y="15" width="1" height="1" fill="#222034"/>
<rect x="42" y="15" width="1" height="1" fill="#222034"/>
<rect x="25" y="16" width="1" height="1" fill="#222034"/>
<rect x="41" y="16" width="2" height="1" fill="#222034"/>
<rect x="25" y="17" width="1" height="1" fill="#222034"/>
<rect x="40" y="17" width="2" height="1" fill="#222034"/>
<rect x="43" y="17" width="1" height="1" fill="#222034"/>
<rect x="24" y="18" width="1" height="1" fill="#222034"/>
<rect x="39" y="18" width="2" height="1" fill="#222034"/>
<rect x="44" y="18" width="1" height="1" fill="#222034"/>
<rect x="24" y="19" width="1" height="1" fill="#222034"/>
<rect x="39" y="19" width="1" height="1" fill="#222034"/>
<rect x="44" y="19" width="1" height="1" fill="#222034"/>
<rect x="24" y="20" width="1" height="1" fill="#222034"/>
<rect x="44" y="20" width="1" height="1" fill="#222034"/>
<rect x="24" y="21" width="1" height="1" fill="#222034"/>
<rect x="44" y="21" width="1" height="1" fill="#222034"/>
<rect x="24" y="22" width="2" height="1" fill="#222034"/>
<rect x="43" y="22" width="2" height="1" fill="#222034"/>
<rect x="25" y="23" width="1" height="1" fill="#222034"/>
<rect x="43" y="23" width="1" height="1" fill="#222034"/>
<rect x="25" y="24" width="2" height="1" fill="#222034"/>
<rect x="42" y="24" width="2" height="1" fill="#222034"/>
<rect x="26" y="25" width="1" height="1" fill="#222034"/>
<rect x="42" y="25" width="1" height="1" fill="#222034"/>
<rect x="26" y="26" width="2" height="1" fill="#222034"/>
<rect x="41" y="26" width="2" height="1" fill="#222034"/>
<rect x="27" y="27" width="2" height="1" fill="#222034"/>
<rect x="40" y="27" width="2" height="1" fill="#222034"/>
<rect x="28" y="28" width="1" height="1" fill="#222034"/>
<rect x="40" y="28" width="1" height="1" fill="#222034"/>
<rect x="27" y="29" width="1" height="1" fill="#222034"/>
<rect x="40" y="29" width="2" height="1" fill="#222034"/>
<rect x="26" y="30" width="1" height="1" fill="#222034"/>
<rect x="42" y="30" width="1" height="1" fill="#222034"/>
<rect x="25" y="31" width="1" height="1" fill="#222034"/>
<rect x="43" y="31" width="1" height="1" fill="#222034"/>
<rect x="25" y="32" width="1" height="1" fill="#222034"/>
<rect x="43" y="32" width="1" height="1" fill="#222034"/>
<rect x="25" y="33" width="1" height="1" fill="#222034"/>
<rect x="43" y="33" width="1" height="1" fill="#222034"/>
<rect x="25" y="34" width="1" height="1" fill="#222034"/>
<rect x="43" y="34" width="1" height="1" fill="#222034"/>
<rect x="25" y="35" width="2" height="1" fill="#222034"/>
<rect x="42" y="35" width="2" height="1" fill="#222034"/>
<rect x="26" y="36" width="2" height="1" fill="#222034"/>
<rect x="41" y="36" width="2" height="1" fill="#222034"/>
<rect x="27" y="37" width="1" height="1" fill="#222034"/>
<rect x="41" y="37" width="1" height="1" fill="#222034"/>
<rect x="27" y="38" width="1" height="1" fill="#222034"/>
<rect x="41" y="38" width="1" height="1" fill="#222034"/>
<rect x="27" y="39" width="1" height="1" fill="#222034"/>
<rect x="41" y="39" width="1" height="1" fill="#222034"/>
<rect x="27" y="40" width="1" height="1" fill="#222034"/>
<rect x="41" y="40" width="1" height="1" fill="#222034"/>
<rect x="27" y="41" width="1" height="1" fill="#222034"/>
<rect x="41" y="41" width="1" height="1" fill="#222034"/>
<rect x="27" y="42" width="1" height="1" fill="#222034"/>
<rect x="41" y="42" width="1" height="1" fill="#222034"/>
<rect x="27" y="43" width="1" height="1" fill="#222034"/>
<rect x="41" y="43" width="1" height="1" fill="#222034"/>
<rect x="26" y="44" width="1" height="1" fill="#222034"/>
<rect x="42" y="44" width="1" height="1" fill="#222034"/>
<rect x="26" y="45" width="1" height="1" fill="#222034"/>
<rect x="42" y="45" width="1" height="1" fill="#222034"/>
<rect x="25" y="46" width="1" height="1" fill="#222034"/>
<rect x="43" y="46" width="1" height="1" fill="#222034"/>
<rect x="23" y="47" width="3" height="1" fill="#222034"/>
<rect x="43" y="47" width="3" height="1" fill="#222034"/>
<rect x="22" y="48" width="1" height="1" fill="#222034"/>
<rect x="46" y="48" width="1" height="1" fill="#222034"/>
<rect x="21" y="49" width="1" height="1" fill="#222034"/>
<rect x="47" y="49" width="1" height="1" fill="#222034"/>
<rect x="21" y="50" width="1" height="1" fill="#222034"/>
<rect x="47" y="50" width="1" height="1" fill="#222034"/>
<rect x="21" y="51" width="1" height="1" fill="#222034"/>
<rect x="47" y="51" width="1" height="1" fill="#222034"/>
<rect x="21" y="52" width="1" height="1" fill="#222034"/>
<rect x="47" y="52" width="1" height="1" fill="#222034"/>
<rect x="20" y="53" width="1" height="1" fill="#222034"/>
<rect x="48" y="53" width="1" height="1" fill="#222034"/>
<rect x="19" y="54" width="1" height="1" fill="#222034"/>
<rect x="49" y="54" width="1" height="1" fill="#222034"/>
<rect x="19" y="55" width="1" height="1" fill="#222034"/>
<rect x="49" y="55" width="1" height="1" fill="#222034"/>
<rect x="18" y="56" width="1" height="1" fill="#222034"/>
<rect x="50" y="56" width="1" height="1" fill="#222034"/>
<rect x="18" y="57" width="1" height="1" fill="#222034"/>
<rect x="50" y="57" width="1" height="1" fill="#222034"/>
<rect x="18" y="58" width="1" height="1" fill="#222034"/>
<rect x="50" y="58" width="1" height="1" fill="#222034"/>
<rect x="17" y="59" width="1" height="1" fill="#222034"/>
<rect x="51" y="59" width="1" height="1" fill="#222034"/>
<rect x="17" y="60" width="1" height="1" fill="#222034"/>
<rect x="51" y="60" width="1" height="1" fill="#222034"/>
<rect x="17" y="61" width="2" height="1" fill="#222034"/>
<rect x="50" y="61" width="2" height="1" fill="#222034"/>
<rect x="18" y="62" width="33" height="1" fill="#222034"/>
<rect x="19" y="63" width="31" height="1" fill="#222034"/>
<rect x="33" y="5" width="3" height="1" fill="#eec39a"/>
<rect x="34" y="6" width="2" height="1" fill="#eec39a"/>
<rect x="33" y="7" width="3" height="1" fill="#eec39a"/>
<rect x="33" y="8" width="4" height="1" fill="#eec39a"/>
<rect x="34" y="9" width="3" height="1" fill="#eec39a"/>
<rect x="29" y="11" width="8" height="1" fill="#eec39a"/>
<rect x="28" y="12" width="9" height="1" fill="#eec39a"/>
<rect x="28" y="13" width="10" height="1" fill="#eec39a"/>
<rect x="27" y="14" width="11" height="1" fill="#eec39a"/>
<rect x="27" y="15" width="12" height="1" fill="#eec39a"/>
<rect x="28" y="16" width="11" height="1" fill="#eec39a"/>
<rect x="28" y="17" width="11" height="1" fill="#eec39a"/>
<rect x="28" y="18" width="10" height="1" fill="#eec39a"/>
<rect x="28" y="19" width="9" height="1" fill="#eec39a"/>
<rect x="40" y="19" width="1" height="1" fill="#eec39a"/>
<rect x="29" y="20" width="13" height="1" fill="#eec39a"/>
<rect x="29" y="21" width="13" height="1" fill="#eec39a"/>
<rect x="29" y="22" width="14" height="1" fill="#eec39a"/>
<rect x="30" y="23" width="13" height="1" fill="#eec39a"/>
<rect x="31" y="24" width="11" height="1" fill="#eec39a"/>
<rect x="37" y="25" width="5" height="1" fill="#eec39a"/>
<rect x="40" y="26" width="1" height="1" fill="#eec39a"/>
<rect x="39" y="29" width="1" height="1" fill="#eec39a"/>
<rect x="31" y="30" width="9" height="1" fill="#eec39a"/>
<rect x="41" y="31" width="1" height="1" fill="#eec39a"/>
<rect x="32" y="32" width="9" height="1" fill="#eec39a"/>
<rect x="38" y="33" width="1" height="1" fill="#eec39a"/>
<rect x="42" y="33" width="1" height="1" fill="#eec39a"/>
<rect x="32" y="34" width="10" height="1" fill="#eec39a"/>
<rect x="36" y="35" width="2" height="1" fill="#eec39a"/>
<rect x="40" y="38" width="1" height="1" fill="#eec39a"/>
<rect x="38" y="39" width="3" height="1" fill="#eec39a"/>
<rect x="34" y="40" width="7" height="1" fill="#eec39a"/>
<rect x="33" y="41" width="8" height="1" fill="#eec39a"/>
<rect x="33" y="42" width="8" height="1" fill="#eec39a"/>
<rect x="32" y="43" width="9" height="1" fill="#eec39a"/>
<rect x="32" y="44" width="9" height="1" fill="#eec39a"/>
<rect x="32" y="45" width="10" height="1" fill="#eec39a"/>
<rect x="32" y="46" width="10" height="1" fill="#eec39a"/>
<rect x="31" y="47" width="12" height="1" fill="#eec39a"/>
<rect x="31" y="48" width="12" height="1" fill="#eec39a"/>
<rect x="30" y="49" width="14" height="1" fill="#eec39a"/>
<rect x="25" y="55" width="22" height="1" fill="#eec39a"/>
<rect x="25" y="56" width="23" height="1" fill="#eec39a"/>
<rect x="24" y="57" width="25" height="1" fill="#eec39a"/>
<rect x="24" y="58" width="26" height="1" fill="#eec39a"/>
<rect x="25" y="59" width="26" height="1" fill="#eec39a"/>
<rect x="30" y="60" width="21" height="1" fill="#eec39a"/>
<rect x="31" y="61" width="19" height="1" fill="#eec39a"/>
<rect x="32" y="6" width="1" height="1" fill="#ab5c5c"/>
<rect x="31" y="7" width="1" height="1" fill="#ab5c5c"/>
<rect x="31" y="8" width="1" height="1" fill="#ab5c5c"/>
<rect x="32" y="9" width="1" height="1" fill="#ab5c5c"/>
<rect x="32" y="10" width="5" height="1" fill="#ab5c5c"/>
<rect x="26" y="16" width="1" height="1" fill="#ab5c5c"/>
<rect x="26" y="17" width="1" height="1" fill="#ab5c5c"/>
<rect x="25" y="18" width="2" height="1" fill="#ab5c5c"/>
<rect x="25" y="19" width="2" height="1" fill="#ab5c5c"/>
<rect x="37" y="19" width="1" height="1" fill="#ab5c5c"/>
<rect x="25" y="20" width="3" height="1" fill="#ab5c5c"/>
<rect x="25" y="21" width="3" height="1" fill="#ab5c5c"/>
<rect x="26" y="22" width="2" height="1" fill="#ab5c5c"/>
<rect x="26" y="23" width="3" height="1" fill="#ab5c5c"/>
<rect x="27" y="24" width="3" height="1" fill="#ab5c5c"/>
<rect x="27" y="25" width="4" height="1" fill="#ab5c5c"/>
<rect x="28" y="26" width="9" height="1" fill="#ab5c5c"/>
<rect x="29" y="27" width="11" height="1" fill="#ab5c5c"/>
<rect x="29" y="28" width="9" height="1" fill="#ab5c5c"/>
<rect x="28" y="29" width="10" height="1" fill="#ab5c5c"/>
<rect x="27" y="30" width="3" height="1" fill="#ab5c5c"/>
<rect x="26" y="31" width="4" height="1" fill="#ab5c5c"/>
<rect x="26" y="32" width="5" height="1" fill="#ab5c5c"/>
<rect x="26" y="33" width="6" height="1" fill="#ab5c5c"/>
<rect x="26" y="34" width="5" height="1" fill="#ab5c5c"/>
<rect x="27" y="35" width="3" height="1" fill="#ab5c5c"/>
<rect x="28" y="36" width="13" height="1" fill="#ab5c5c"/>
<rect x="28" y="37" width="12" height="1" fill="#ab5c5c"/>
<rect x="28" y="38" width="10" height="1" fill="#ab5c5c"/>
<rect x="28" y="39" width="5" height="1" fill="#ab5c5c"/>
<rect x="28" y="40" width="5" height="1" fill="#ab5c5c"/>
<rect x="28" y="41" width="4" height="1" fill="#ab5c5c"/>
<rect x="28" y="42" width="4" height="1" fill="#ab5c5c"/>
<rect x="28" y="43" width="3" height="1" fill="#ab5c5c"/>
<rect x="27" y="44" width="4" height="1" fill="#ab5c5c"/>
<rect x="27" y="45" width="4" height="1" fill="#ab5c5c"/>
<rect x="26" y="46" width="5" height="1" fill="#ab5c5c"/>
<rect x="26" y="47" width="4" height="1" fill="#ab5c5c"/>
<rect x="23" y="48" width="7" height="1" fill="#ab5c5c"/>
<rect x="22" y="49" width="7" height="1" fill="#ab5c5c"/>
<rect x="22" y="50" width="7" height="1" fill="#ab5c5c"/>
<rect x="22" y="51" width="6" height="1" fill="#ab5c5c"/>
<rect x="22" y="52" width="5" height="1" fill="#ab5c5c"/>
<rect x="21" y="53" width="27" height="1" fill="#ab5c5c"/>
<rect x="20" y="54" width="5" height="1" fill="#ab5c5c"/>
<rect x="20" y="55" width="4" height="1" fill="#ab5c5c"/>
<rect x="19" y="56" width="5" height="1" fill="#ab5c5c"/>
<rect x="19" y="57" width="4" height="1" fill="#ab5c5c"/>
<rect x="19" y="58" width="4" height="1" fill="#ab5c5c"/>
<rect x="18" y="59" width="5" height="1" fill="#ab5c5c"/>
<rect x="18" y="60" width="7" height="1" fill="#ab5c5c"/>
<rect x="19" y="61" width="11" height="1" fill="#ab5c5c"/>
<rect x="33" y="6" width="1" height="1" fill="#cf9191"/>
<rect x="32" y="7" width="1" height="1" fill="#cf9191"/>
<rect x="32" y="8" width="1" height="1" fill="#cf9191"/>
<rect x="33" y="9" width="1" height="1" fill="#cf9191"/>
<rect x="41" y="15" width="1" height="1" fill="#cf9191"/>
<rect x="27" y="16" width="1" height="1" fill="#cf9191"/>
<rect x="40" y="16" width="1" height="1" fill="#cf9191"/>
<rect x="27" y="17" width="1" height="1" fill="#cf9191"/>
<rect x="39" y="17" width="1" height="1" fill="#cf9191"/>
<rect x="27" y="18" width="1" height="1" fill="#cf9191"/>
<rect x="38" y="18" width="1" height="1" fill="#cf9191"/>
<rect x="27" y="19" width="1" height="1" fill="#cf9191"/>
<rect x="38" y="19" width="1" height="1" fill="#cf9191"/>
<rect x="28" y="20" width="1" height="1" fill="#cf9191"/>
<rect x="28" y="21" width="1" height="1" fill="#cf9191"/>
<rect x="28" y="22" width="1" height="1" fill="#cf9191"/>
<rect x="29" y="23" width="1" height="1" fill="#cf9191"/>
<rect x="30" y="24" width="1" height="1" fill="#cf9191"/>
<rect x="31" y="25" width="6" height="1" fill="#cf9191"/>
<rect x="37" y="26" width="3" height="1" fill="#cf9191"/>
<rect x="38" y="28" width="2" height="1" fill="#cf9191"/>
<rect x="38" y="29" width="1" height="1" fill="#cf9191"/>
<rect x="30" y="30" width="1" height="1" fill="#cf9191"/>
<rect x="40" y="30" width="2" height="1" fill="#cf9191"/>
<rect x="30" y="31" width="11" height="1" fill="#cf9191"/>
<rect x="42" y="31" width="1" height="1" fill="#cf9191"/>
<rect x="31" y="32" width="1" height="1" fill="#cf9191"/>
<rect x="41" y="32" width="2" height="1" fill="#cf9191"/>
<rect x="32" y="33" width="6" height="1" fill="#cf9191"/>
<rect x="39" y="33" width="3" height="1" fill="#cf9191"/>
<rect x="31" y="34" width="1" height="1" fill="#cf9191"/>
<rect x="42" y="34" width="1" height="1" fill="#cf9191"/>
<rect x="30" y="35" width="6" height="1" fill="#cf9191"/>
<rect x="38" y="35" width="4" height="1" fill="#cf9191"/>
<rect x="40" y="37" width="1" height="1" fill="#cf9191"/>
<rect x="38" y="38" width="2" height="1" fill="#cf9191"/>
<rect x="33" y="39" width="5" height="1" fill="#cf9191"/>
<rect x="33" y="40" width="1" height="1" fill="#cf9191"/>
<rect x="32" y="41" width="1" height="1" fill="#cf9191"/>
<rect x="32" y="42" width="1" height="1" fill="#cf9191"/>
<rect x="31" y="43" width="1" height="1" fill="#cf9191"/>
<rect x="31" y="44" width="1" height="1" fill="#cf9191"/>
<rect x="31" y="45" width="1" height="1" fill="#cf9191"/>
<rect x="31" y="46" width="1" height="1" fill="#cf9191"/>
<rect x="30" y="47" width="1" height="1" fill="#cf9191"/>
<rect x="30" y="48" width="1" height="1" fill="#cf9191"/>
<rect x="29" y="49" width="1" height="1" fill="#cf9191"/>
<rect x="46" y="50" width="1" height="1" fill="#cf9191"/>
<rect x="28" y="51" width="19" height="1" fill="#cf9191"/>
<rect x="27" y="52" width="20" height="1" fill="#cf9191"/>
<rect x="25" y="54" width="24" height="1" fill="#cf9191"/>
<rect x="24" y="55" width="1" height="1" fill="#cf9191"/>
<rect x="24" y="56" width="1" height="1" fill="#cf9191"/>
<rect x="23" y="57" width="1" height="1" fill="#cf9191"/>
<rect x="23" y="58" width="1" height="1" fill="#cf9191"/>
<rect x="23" y="59" width="2" height="1" fill="#cf9191"/>
<rect x="25" y="60" width="5" height="1" fill="#cf9191"/>
<rect x="30" y="61" width="1" height="1" fill="#cf9191"/>
<rect x="36" y="6" width="1" height="1" fill="#e9edaf"/>
<rect x="36" y="7" width="2" height="1" fill="#e9edaf"/>
<rect x="37" y="8" width="1" height="1" fill="#e9edaf"/>
<rect x="37" y="11" width="3" height="1" fill="#e9edaf"/>
<rect x="37" y="12" width="4" height="1" fill="#e9edaf"/>
<rect x="38" y="13" width="3" height="1" fill="#e9edaf"/>
<rect x="38" y="14" width="4" height="1" fill="#e9edaf"/>
<rect x="39" y="15" width="2" height="1" fill="#e9edaf"/>
<rect x="39" y="16" width="1" height="1" fill="#e9edaf"/>
<rect x="42" y="17" width="1" height="1" fill="#e9edaf"/>
<rect x="41" y="18" width="3" height="1" fill="#e9edaf"/>
<rect x="41" y="19" width="3" height="1" fill="#e9edaf"/>
<rect x="42" y="20" width="2" height="1" fill="#e9edaf"/>
<rect x="42" y="21" width="2" height="1" fill="#e9edaf"/>
<rect x="41" y="44" width="1" height="1" fill="#e9edaf"/>
<rect x="42" y="46" width="1" height="1" fill="#e9edaf"/>
<rect x="43" y="48" width="3" height="1" fill="#e9edaf"/>
<rect x="44" y="49" width="3" height="1" fill="#e9edaf"/>
<rect x="29" y="50" width="17" height="1" fill="#e9edaf"/>
<rect x="47" y="55" width="2" height="1" fill="#e9edaf"/>
<rect x="48" y="56" width="2" height="1" fill="#e9edaf"/>
<rect x="49" y="57" width="1" height="1" fill="#e9edaf"/>
</svg>