<svg xmlns="http://www.w3.org/2000/svg" viewBox="0 0 64 64" shape-rendering="crispEdges">
<title>Chess piece</title>
<rect x="31" y="1" width="2" height="1" fill="#222034"/>
<rect x="30" y="2" width="1" height="1" fill="#222034"/>
<rect x="33" y="2" width="1" height="1" fill="#222034"/>
<rect x="29" y="3" width="1" height="1" fill="#222034"/>
<rect x="34" y="3" width="1" height="1" fill="#222034"/>
<rect x="29" y="4" width="2" height="1" fill="#222034"/>
<rect x="33" y="4" width="2" height="1" fill="#222034"/>
<rect x="27" y="5" width="2" height="1" fill="#222034"/>
<rect x="35" y="5" width="2" height="1" fill="#222034"/>
<rect x="26" y="6" width="1" height="1" fill="#222034"/>
<rect x="37" y="6" width="1" height="1" fill="#222034"/>
<rect x="22" y="7" width="2" height="1" fill="#222034"/>
<rect x="25" y="7" width="1" height="1" fill="#222034"/>
<rect x="38" y="7" width="1" height="1" fill="#222034"/>
<rect x="40" y="7" width="2" height="1" fill="#222034"/>
<rect x="21" y="8" width="1" height="1" fill="#222034"/>
<rect x="24" y="8" width="1" height="1" fill="#222034"/>
<rect x="39" y="8" width="1" height="1" fill="#222034"/>
<rect x="42" y="8" width="1" height="1" fill="#222034"/>
<rect x="21" y="9" width="1" height="1" fill="#222034"/>
<rect x="42" y="9" width="1" height="1" fill="#222034"/>
<rect x="21" y="10" width="2" height="1" fill="#222034"/>
<rect x="41" y="10" width="2" height="1" fill="#222034"/>
<rect x="22" y="11" width="1" height="1" fill="#222034"/>
<rect x="41" y="11" width="1" height="1" fill="#222034"/>
<rect x="22" y="12" width="2" height="1" fill="#222034"/>
<rect x="40" y="12" width="2" height="1" fill="#222034"/>
<rect x="23" y="13" width="1" height="1" fill="#222034"/>
<rect x="40" y="13" width="1" height="1" fill="#222034"/>
<rect x="23" y="14" width="2" height="1" fill="#222034"/>
<rect x="39" y="14" width="2" height="1" fill="#222034"/>
<rect x="24" y="15" width="1" height="1" fill="#222034"/>
<rect x="39" y="15" width="1" height="1" fill="#222034"/>
<rect x="24" y="16" width="1" height="1" fill="#222034"/>
<rect x="39" y="16" width="1" height="1" fill="#222034"/>
<rect x="23" y="17" width="1" height="1" fill="#222034"/>
<rect x="40" y="17" width="1" height="1" fill="#222034"/>
<rect x="22" y="18" width="1" height="1" fill="#222034"/>
<rect x="40" y="18" width="1" height="1" fill="#222034"/>
<rect x="22" y="19" width="1" height="1" fill="#222034"/>
<rect x="40" y="19" width="1" height="1" fill="#222034"/>
<rect x="22" y="20" width="1" height="1" fill="#222034"/>
<rect x="40" y="20" width="1" height="1" fill="#222034"/>
<rect x="22" y="21" width="1" height="1" fill="#222034"/>
<rect x="40" y="21" width="1" height="1" fill="#222034"/>
<rect x="22" y="22" width="2" height="1" fill="#222034"/>
<rect x="39" y="22" width="2" height="1" fill="#222034"/>
<rect x="23" y="23" width="2" height="1" fill="#222034"/>
<rect x="38" y="23" width="2" height="1" fill="#222034"/>
<rect x="24" y="24" width="2" height="1" fill="#222034"/>
<rect x="37" y="24" width="2" height="1" fill="#222034"/>
<rect x="25" y="25" width="1" height="1" fill="#222034"/>
<rect x="37" y="25" width="1" height="1" fill="#222034"/>
<rect x="25" y="26" width="1" height="1" fill="#222034"/>
<rect x="37" y="26" width="1" height="1" fill="#222034"/>
<rect x="25" y="27" width="1" height="1" fill="#222034"/>
<rect x="37" y="27" width="1" height="1" fill="#222034"/>
<rect x="25" y="28" width="1" height="1" fill="#222034"/>
<rect x="37" y="28" width="1" height="1" fill="#222034"/>
<rect x="25" y="29" width="1" height="1" fill="#222034"/>
<rect x="37" y="29" width="1" height="1" fill="#222034"/>
<rect x="25" y="30" width="1" height="1" fill="#222034"/>
<rect x="37" y="30" width="1" height="1" fill="#222034"/>
<rect x="25" y="31" width="1" height="1" fill="#222034"/>
<rect x="37" y="31" width="1" height="1" fill="#222034"/>
<rect x="25" y="32" width="1" height="1" fill="#222034"/>
<rect x="37" y="32" width="1" height="1" fill="#222034"/>
<rect x="25" y="33" width="1" height="1" fill="#222034"/>
<rect x="37" y="33" width="1" height="1" fill="#222034"/>
<rect x="25" y="34" width="1" height="1" fill="#222034"/>
<rect x="37" y="34" width="1" height="1" fill="#222034"/>
<rect x="25" y="35" width="1" height="1" fill="#222034"/>
<rect x="37" y="35" width="1" height="1" fill="#222034"/>
<rect x="25" y="36" width="1" height="1" fill="#222034"/>
<rect x="37" y="36" width="1" height="1" fill="#222034"/>
<rect x="25" y="37" width="1" height="1" fill="#222034"/>
<rect x="37" y="37" width="1" height="1" fill="#222034"/>
<rect x="24" y="38" width="1" height="1" fill="#222034"/>
<rect x="38" y="38" width="1" height="1" fill="#222034"/>
<rect x="24" y="39" width="1" height="1" fill="#222034"/>
<rect x="38" y="39" width="1" height="1" fill="#222034"/>
<rect x="24" y="40" width="1" height="1" fill="#222034"/>
<rect x="38" y="40" width="1" height="1" fill="#222034"/>
<rect x="24" y="41" width="1" height="1" fill="#222034"/>
<rect x="38" y="41" width="1" height="1" fill="#222034"/>
<rect x="24" y="42" width="1" height="1" fill="#222034"/>
<rect x="38" y="42" width="1" height="1" fill="#222034"/>
<rect x="24" y="43" width="1" height="1" fill="#222034"/>
<rect x="38" y="43" width="1" height="1" fill="#222034"/>
<rect x="23" y="44" width="1" height="1" fill="#222034"/>
<rect x="39" y="44" width="1" height="1" fill="#222034"/>
<rect x="23" y="45" width="1" height="1" fill="#222034"/>
<rect x="39" y="45" width="1" height="1" fill="#222034"/>
<rect x="22" y="46" width="1" height="1" fill="#222034"/>
<rect x="40" y="46" width="1" height="1" fill="#222034"/>
<rect x="20" y="47" width="3" height="1" fill="#222034"/>
<rect x="40" y="47" width="3" height="1" fill="#222034"/>
<rect x="19" y="48" width="1" height="1" fill="#222034"/>
<rect x="43" y="48" width="1" height="1" fill="#222034"/>
<rect x="18" y="49" width="1" height="1" fill="#222034"/>
<rect x="44" y="49" width="1" height="1" fill="#222034"/>
<rect x="18" y="50" width="1" height="1" fill="#222034"/>
<rect x="44" y="50" width="1" height="1" fill="#222034"/>
<rect x="18" y="51" width="1" height="1" fill="#222034"/>
<rect x="44" y="51" width="1" height="1" fill="#222034"/>
<rect x="18" y="52" width="1" height="1" fill="#222034"/>
<rect x="44" y="52" width="1" height="1" fill="#222034"/>
<rect x="17" y="53" width="1" height="1" fill="#222034"/>
<rect x="45" y="53" width="1" height="1" fill="#222034"/>
<rect x="16" y="54" width="1" height="1" fill="#222034"/>
<rect x="46" y="54" width="1" height="1" fill="#222034"/>
<rect x="16" y="55" width="1" height="1" fill="#222034"/>
<rect x="46" y="55" width="1" height="1" fill="#222034"/>
<rect x="15" y="56" width="1" height="1" fill="#222034"/>
<rect x="47" y="56" width="1" height="1" fill="#222034"/>
<rect x="15" y="57" width="1" height="1" fill="#222034"/>
<rect x="47" y="57" width="1" height="1" fill="#222034"/>
<rect x="15" y="58" width="1" height="1" fill="#222034"/>
<rect x="47" y="58" width="1" height="1" fill="#222034"/>
<rect x="14" y="59" width="1" height="1" fill="#222034"/>
<rect x="48" y="59" width="1" height="1" fill="#222034"/>
<rect x="14" y="60" width="1" height="1" fill="#222034"/>
<rect x="48" y="60" width="1" height="1" fill="#222034"/>
<rect x="14" y="61" width="2" height="1" fill="#222034"/>
<rect x="47" y="61" width="2" height="1" fill="#222034"/>
<rect x="15" y="62" width="33" height="1" fill="#222034"/>
<rect x="16" y="63" width="31" height="1" fill="#222034"/>
<rect x="31" y="2" width="2" height="1" fill="#e9edaf"/>
<rect x="33" y="3" width="1" height="1" fill="#e9edaf"/>
<rect x="40" y="8" width="2" height="1" fill="#e9edaf"/>
<rect x="41" y="9" width="1" height="1" fill="#e9edaf"/>
<rect x="37" y="38" width="1" height="1" fill="#e9edaf"/>
<rect x="38" y="44" width="1" height="1" fill="#e9edaf"/>
<rect x="39" y="46" width="1" height="1" fill="#e9edaf"/>
<rect x="40" y="48" width="3" height="1" fill="#e9edaf"/>
<rect x="41" y="49" width="3" height="1" fill="#e9edaf"/>
<rect x="26" y="50" width="17" height="1" fill="#e9edaf"/>
<rect x="44" y="55" width="2" height="1" fill="#e9edaf"/>
<rect x="45" y="56" width="2" height="1" fill="#e9edaf"/>
<rect x="46" y="57" width="1" height="1" fill="#e9edaf"/>
<rect x="30" y="3" width="3" height="1" fill="#eec39a"/>
<rect x="31" y="4" width="2" height="1" fill="#eec39a"/>
<rect x="29" y="5" width="6" height="1" fill="#eec39a"/>
<rect x="27" y="6" width="10" height="1" fill="#eec39a"/>
<rect x="26" y="7" width="3" height="1" fill="#eec39a"/>
<rect x="30" y="7" width="4" height="1" fill="#eec39a"/>
<rect x="35" y="7" width="3" height="1" fill="#eec39a"/>
<rect x="29" y="8" width="1" height="1" fill="#eec39a"/>
<rect x="31" y="8" width="2" height="1" fill="#eec39a"/>
<rect x="34" y="8" width="1" height="1" fill="#eec39a"/>
<rect x="25" y="9" width="1" height="1" fill="#eec39a"/>
<rect x="28" y="9" width="3" height="1" fill="#eec39a"/>
<rect x="33" y="9" width="3" height="1" fill="#eec39a"/>
<rect x="38" y="9" width="3" height="1" fill="#eec39a"/>
<rect x="26" y="10" width="1" height="1" fill="#eec39a"/>
<rect x="28" y="10" width="3" height="1" fill="#eec39a"/>
<rect x="33" y="10" width="3" height="1" fill="#eec39a"/>
<rect x="37" y="10" width="4" height="1" fill="#eec39a"/>
<rect x="27" y="11" width="14" height="1" fill="#eec39a"/>
<rect x="27" y="12" width="13" height="1" fill="#eec39a"/>
<rect x="28" y="13" width="12" height="1" fill="#eec39a"/>
<rect x="28" y="14" width="11" height="1" fill="#eec39a"/>
<rect x="29" y="15" width="10" height="1" fill="#eec39a"/>
<rect x="29" y="16" width="10" height="1" fill="#eec39a"/>
<rect x="29" y="17" width="8" height="1" fill="#eec39a"/>
<rect x="39" y="17" width="1" height="1" fill="#eec39a"/>
<rect x="38" y="18" width="1" height="1" fill="#eec39a"/>
<rect x="29" y="19" width="9" height="1" fill="#eec39a"/>
<rect x="35" y="20" width="1" height="1" fill="#eec39a"/>
<rect x="39" y="20" width="1" height="1" fill="#eec39a"/>
<rect x="29" y="21" width="10" height="1" fill="#eec39a"/>
<rect x="33" y="22" width="2" height="1" fill="#eec39a"/>
<rect x="35" y="26" width="2" height="1" fill="#eec39a"/>
<rect x="31" y="27" width="6" height="1" fill="#eec39a"/>
<rect x="30" y="28" width="7" height="1" fill="#eec39a"/>
<rect x="30" y="29" width="7" height="1" fill="#eec39a"/>
<rect x="30" y="30" width="7" height="1" fill="#eec39a"/>
<rect x="30" y="31" width="7" height="1" fill="#eec39a"/>
<rect x="30" y="32" width="7" height="1" fill="#eec39a"/>
<rect x="30" y="33" width="7" height="1" fill="#eec39a"/>
<rect x="30" y="34" width="7" height="1" fill="#eec39a"/>
<rect x="30" y="35" width="7" height="1" fill="#eec39a"/>
<rect x="30" y="36" width="7" height="1" fill="#eec39a"/>
<rect x="30" y="37" width="7" height="1" fill="#eec39a"/>
<rect x="30" y="38" width="7" height="1" fill="#eec39a"/>
<rect x="30" y="39" width="8" height="1" fill="#eec39a"/>
<rect x="30" y="40" width="8" height="1" fill="#eec39a"/>
<rect x="30" y="41" width="8" height="1" fill="#eec39a"/>
<rect x="30" y="42" width="8" height="1" fill="#eec39a"/>
<rect x="29" y="43" width="9" height="1" fill="#eec39a"/>
<rect x="29" y="44" width="9" height="1" fill="#eec39a"/>
<rect x="29" y="45" width="10" height="1" fill="#eec39a"/>
<rect x="29" y="46" width="10" height="1" fill="#eec39a"/>
<rect x="28" y="47" width="12" height="1" fill="#eec39a"/>
<rect x="28" y="48" width="12" height="1" fill="#eec39a"/>
<rect x="27" y="49" width="14" height="1" fill="#eec39a"/>
<rect x="22" y="55" width="22" height="1" fill="#eec39a"/>
<rect x="22" y="56" width="23" height="1" fill="#eec39a"/>
<rect x="21" y="57" width="25" height="1" fill="#eec39a"/>
<rect x="21" y="58" width="26" height="1" fill="#eec39a"/>
<rect x="22" y="59" width="26" height="1" fill="#eec39a"/>
<rect x="27" y="60" width="21" height="1" fill="#eec39a"/>
<rect x="28" y="61" width="19" height="1" fill="#eec39a"/>
<rect x="29" y="7" width="1" height="1" fill="#cf9191"/>
<rect x="34" y="7" width="1" height="1" fill="#cf9191"/>
<rect x="23" y="8" width="1" height="1" fill="#cf9191"/>
<rect x="25" y="8" width="4" height="1" fill="#cf9191"/>
<rect x="30" y="8" width="1" height="1" fill="#cf9191"/>
<rect x="33" y="8" width="1" height="1" fill="#cf9191"/>
<rect x="35" y="8" width="4" height="1" fill="#cf9191"/>
<rect x="24" y="9" width="1" height="1" fill="#cf9191"/>
<rect x="26" y="9" width="2" height="1" fill="#cf9191"/>
<rect x="31" y="9" width="2" height="1" fill="#cf9191"/>
<rect x="36" y="9" width="2" height="1" fill="#cf9191"/>
<rect x="25" y="10" width="1" height="1" fill="#cf9191"/>
<rect x="27" y="10" width="1" height="1" fill="#cf9191"/>
<rect x="31" y="10" width="2" height="1" fill="#cf9191"/>
<rect x="36" y="10" width="1" height="1" fill="#cf9191"/>
<rect x="26" y="11" width="1" height="1" fill="#cf9191"/>
<rect x="26" y="12" width="1" height="1" fill="#cf9191"/>
<rect x="27" y="13" width="1" height="1" fill="#cf9191"/>
<rect x="27" y="14" width="1" height="1" fill="#cf9191"/>
<rect x="28" y="15" width="1" height="1" fill="#cf9191"/>
<rect x="28" y="16" width="1" height="1" fill="#cf9191"/>
<rect x="28" y="17" width="1" height="1" fill="#cf9191"/>
<rect x="37" y="17" width="2" height="1" fill="#cf9191"/>
<rect x="28" y="18" width="10" height="1" fill="#cf9191"/>
<rect x="39" y="18" width="1" height="1" fill="#cf9191"/>
<rect x="28" y="19" width="1" height="1" fill="#cf9191"/>
<rect x="38" y="19" width="2" height="1" fill="#cf9191"/>
<rect x="29" y="20" width="6" height="1" fill="#cf9191"/>
<rect x="36" y="20" width="3" height="1" fill="#cf9191"/>
<rect x="28" y="21" width="1" height="1" fill="#cf9191"/>
<rect x="39" y="21" width="1" height="1" fill="#cf9191"/>
<rect x="27" y="22" width="6" height="1" fill="#cf9191"/>
<rect x="35" y="22" width="4" height="1" fill="#cf9191"/>
<rect x="35" y="25" width="2" height="1" fill="#cf9191"/>
<rect x="30" y="26" width="5" height="1" fill="#cf9191"/>
<rect x="30" y="27" width="1" height="1" fill="#cf9191"/>
<rect x="29" y="28" width="1" height="1" fill="#cf9191"/>
<rect x="29" y="29" width="1" height="1" fill="#cf9191"/>
<rect x="29" y="30" width="1" height="1" fill="#cf9191"/>
<rect x="29" y="31" width="1" height="1" fill="#cf9191"/>
<rect x="29" y="32" width="1" height="1" fill="#cf9191"/>
<rect x="29" y="33" width="1" height="1" fill="#cf9191"/>
<rect x="29" y="34" width="1" height="1" fill="#cf9191"/>
<rect x="29" y="35" width="1" height="1" fill="#cf9191"/>
<rect x="29" y="36" width="1" height="1" fill="#cf9191"/>
<rect x="29" y="37" width="1" height="1" fill="#cf9191"/>
<rect x="29" y="38" width="1" height="1" fill="#cf9191"/>
<rect x="29" y="39" width="1" height="1" fill="#cf9191"/>
<rect x="29" y="40" width="1" height="1" fill="#cf9191"/>
<rect x="29" y="41" width="1" height="1" fill="#cf9191"/>
<rect x="29" y="42" width="1" height="1" fill="#cf9191"/>
<rect x="28" y="43" width="1" height="1" fill="#cf9191"/>
<rect x="28" y="44" width="1" height="1" fill="#cf9191"/>
<rect x="28" y="45" width="1" height="1" fill="#cf9191"/>
<rect x="28" y="46" width="1" height="1" fill="#cf9191"/>
<rect x="27" y="47" width="1" height="1" fill="#cf9191"/>
<rect x="27" y="48" width="1" height="1" fill="#cf9191"/>
<rect x="26" y="49" width="1" height="1" fill="#cf9191"/>
<rect x="43" y="50" width="1" height="1" fill="#cf9191"/>
<rect x="25" y="51" width="19" height="1" fill="#cf9191"/>
<rect x="24" y="52" width="20" height="1" fill="#cf9191"/>
<rect x="22" y="54" width="24" height="1" fill="#cf9191"/>
<rect x="21" y="55" width="1" height="1" fill="#cf9191"/>
<rect x="21" y="56" width="1" height="1" fill="#cf9191"/>
<rect x="20" y="57" width="1" height="1" fill="#cf9191"/>
<rect x="20" y="58" width="1" height="1" fill="#cf9191"/>
<rect x="20" y="59" width="2" height="1" fill="#cf9191"/>
<rect x="22" y="60" width="5" height="1" fill="#cf9191"/>
<rect x="27" y="61" width="1" height="1" fill="#cf9191"/>
<rect x="22" y="8" width="1" height="1" fill="#ab5c5c"/>
<rect x="22" y="9" width="2" height="1" fill="#ab5c5c"/>
<rect x="23" y="10" width="2" height="1" fill="#ab5c5c"/>
<rect x="23" y="11" width="3" height="1" fill="#ab5c5c"/>
<rect x="24" y="12" width="2" height="1" fill="#ab5c5c"/>
<rect x="24" y="13" width="3" height="1" fill="#ab5c5c"/>
<rect x="25" y="14" width="2" height="1" fill="#ab5c5c"/>
<rect x="25" y="15" width="3" height="1" fill="#ab5c5c"/>
<rect x="25" y="16" width="3" height="1" fill="#ab5c5c"/>
<rect x="24" y="17" width="4" height="1" fill="#ab5c5c"/>
<rect x="23" y="18" width="5" height="1" fill="#ab5c5c"/>
<rect x="23" y="19" width="5" height="1" fill="#ab5c5c"/>
<rect x="23" y="20" width="6" height="1" fill="#ab5c5c"/>
<rect x="23" y="21" width="5" height="1" fill="#ab5c5c"/>
<rect x="24" y="22" width="3" height="1" fill="#ab5c5c"/>
<rect x="25" y="23" width="13" height="1" fill="#ab5c5c"/>
<rect x="26" y="24" width="11" height="1" fill="#ab5c5c"/>
<rect x="26" y="25" width="9" height="1" fill="#ab5c5c"/>
<rect x="26" y="26" width="4" height="1" fill="#ab5c5c"/>
<rect x="26" y="27" width="4" height="1" fill="#ab5c5c"/>
<rect x="26" y="28" width="3" height="1" fill="#ab5c5c"/>
<rect x="26" y="29" width="3" height="1" fill="#ab5c5c"/>
<rect x="26" y="30" width="3" height="1" fill="#ab5c5c"/>
<rect x="26" y="31" width="3" height="1" fill="#ab5c5c"/>
<rect x="26" y="32" width="3" height="1" fill="#ab5c5c"/>
<rect x="26" y="33" width="3" height="1" fill="#ab5c5c"/>
<rect x="26" y="34" width="3" height="1" fill="#ab5c5c"/>
<rect x="26" y="35" width="3" height="1" fill="#ab5c5c"/>
<rect x="26" y="36" width="3" height="1" fill="#ab5c5c"/>
<rect x="26" y="37" width="3" height="1" fill="#ab5c5c"/>
<rect x="25" y="38" width="4" height="1" fill="#ab5c5c"/>
<rect x="25" y="39" width="4" height="1" fill="#ab5c5c"/>
<rect x="25" y="40" width="4" height="1" fill="#ab5c5c"/>
<rect x="25" y="41" width="4" height="1" fill="#ab5c5c"/>
<rect x="25" y="42" width="4" height="1" fill="#ab5c5c"/>
<rect x="25" y="43" width="3" height="1" fill="#ab5c5c"/>
<rect x="24" y="44" width="4" height="1" fill="#ab5c5c"/>
<rect x="24" y="45" width="4" height="1" fill="#ab5c5c"/>
<rect x="23" y="46" width="5" height="1" fill="#ab5c5c"/>
<rect x="23" y="47" width="4" height="1" fill="#ab5c5c"/>
<rect x="20" y="48" width="7" height="1" fill="#ab5c5c"/>
<rect x="19" y="49" width="7" height="1" fill="#ab5c5c"/>
<rect x="19" y="50" width="7" height="1" fill="#ab5c5c"/>
<rect x="19" y="51" width="6" height="1" fill="#ab5c5c"/>
<rect x="19" y="52" width="5" height="1" fill="#ab5c5c"/>
<rect x="18" y="53" width="27" height="1" fill="#ab5c5c"/>
<rect x="17" y="54" width="5" height="1" fill="#ab5c5c"/>
<rect x="17" y="55" width="4" height="1" fill="#ab5c5c"/>
<rect x="16" y="56" width="5" height="1" fill="#ab5c5c"/>
<rect x="16" y="57" width="4" height="1" fill="#ab5c5c"/>
<rect x="16" y="58" width="4" height="1" fill="#ab5c5c"/>
<rect x="15" y="59" width="5" height="1" fill="#ab5c5c"/>
<rect x="15" y="60" width="7" height="1" fill="#ab5c5c"/>
<rect x="16" y="61" width="11" height="1" fill="#ab5c5c"/>
</svg>